Simulation
nRows=36
nColumns=15
endheader
time  TH_x TH_y TH_z SC_y  SC_z  SC_x  AC_y  AC_z  AC_x  GH_y  GH_z  GH_yy  EL_x  PS_y
0.75  0.000000  0.000000  0.000000  -30.94778992296896  0.3405351977905681  20.716457980466718  57.48990352732921  2.42076354937735  -11.951656252317981  20.915635389498735  45.32188564656249  -17.663266779374986  19.940809227528387  0.000000
0.765  0.000000  0.000000  0.000000  -31.024020961631347  0.39640786351247564  20.92667746912812  57.58831319234065  2.867534294127189  -11.914848237168606  21.004224243843208  45.830536963437154  -18.00505169572982  19.736414397862852  0.000000
0.78  0.000000  0.000000  0.000000  -31.101939722588057  0.45269003040819833  21.13618682107808  57.68139966679795  3.3143365130748883  -11.872449152791924  21.102321581195195  46.32347992974804  -18.347026277059847  19.530773614723817  0.000000
0.7949999999999999  0.000000  0.000000  0.000000  -31.181366814315346  0.5088521071838972  21.34513375174549  57.76905379832648  3.759167749804255  -11.82493607893897  21.209154163731405  46.800608732817814  -18.688910706244556  19.324313173773923  0.000000
0.8099999999999999  0.000000  0.000000  0.000000  -31.261417760262667  0.5641388256825666  21.553518559017412  57.8510663317263  4.200289585958651  -11.773216089726258  21.323449676155118  47.26157086324611  -19.03001884716763  19.117535741049334  0.000000
0.825  0.000000  0.000000  0.000000  -31.341491206868497  0.6179027235551406  21.76090713319673  57.927691069868025  4.636059562191769  -11.717329313934437  21.444047062712006  47.706248373866075  -19.36978647125085  18.910925981985848  0.000000
0.84  0.000000  0.000000  0.000000  -31.421703888905935  0.6699983519960079  21.96667218756136  57.999990405475714  5.064256973336457  -11.656385920252227  21.57078179244966  48.13497062045541  -19.708377226317527  18.704891598572278  0.000000
0.855  0.000000  0.000000  0.000000  -31.50216295941049  0.7206444858900404  22.17042139349528  58.06926054748998  5.482213019689307  -11.589479664378805  21.703473778494242  48.54834590431216  -20.045842289467082  18.500145543551536  0.000000
0.87  0.000000  0.000000  0.000000  -31.58229179225068  0.7698985579242167  22.37155113620944  58.13654611736326  5.887590000844167  -11.516109985561304  21.841433878866358  48.946890879076356  -20.381723270815225  18.29746998764206  0.000000
0.885  0.000000  0.000000  0.000000  -31.661256934909893  0.8175886087887224  22.56952106395765  58.2028487348293  6.278157835964929  -11.436041034943651  21.983160947719572  49.33114803304234  -20.715055953649443  18.097521445294028  0.000000
0.8999999999999999  0.000000  0.000000  0.000000  -31.73807087299187  0.863459457862701  22.76388787517099  58.26918696983131  6.651573402948481  -11.349416074618631  22.12685179529418  49.701708216528935  -21.044733330844466  17.90084739246132  0.000000
0.9149999999999999  0.000000  0.000000  0.000000  -31.81172453812343  0.9074280103147369  22.954382117248493  58.33654514332787  7.005461868141763  -11.25647843680134  22.270250474933313  50.05918985193069  -21.36933995704731  17.707898073065795  0.000000
0.9299999999999999  0.000000  0.000000  0.000000  -31.880872874407203  0.9497003985307587  23.14038337521403  58.405593861356195  7.33788250776663  -11.15744625061774  22.410907887401056  50.404083854156966  -21.687288080256636  17.519291821700268  0.000000
0.945  0.000000  0.000000  0.000000  -31.944527081281834  0.990585058638856  23.321179614034136  58.47725870723483  7.647289599902284  -11.052126525565145  22.54652621948358  50.73709990660667  -21.99700723191895  17.335555472165478  0.000000
0.96  0.000000  0.000000  0.000000  -32.00224706920507  1.030460987500658  23.49589115793434  58.55269192429994  7.9324086749164655  -10.940161857577287  22.675696774468744  51.05931429786149  -22.29758069707927  17.157171131863358  0.000000
0.975  0.000000  0.000000  0.000000  -32.05356986900771  1.0697716912221027  23.663830923644447  58.63250336387711  8.192664494934604  -10.821335975513291  22.79711642931282  51.37145383964179  -22.587934791312925  16.984979644769616  0.000000
0.99  0.000000  0.000000  0.000000  -32.09753357959392  1.109032759502208  23.82426803022254  58.71658719013607  8.428376107916808  -10.69589702278359  22.909733621540674  51.673784323037324  -22.86699807627462  16.81966829567804  0.000000
1.005  0.000000  0.000000  0.000000  -32.133873464764655  1.1486110924558959  23.976933861929055  58.80486027840816  8.6404863781113  -10.564282095634628  23.013211326797265  51.96631630952782  -23.134090228100142  16.66178025004307  0.000000
1.02  0.000000  0.000000  0.000000  -32.16287233131617  1.1887513129405394  24.121754465884074  58.896810156774855  8.830450640476084  -10.427197523264741  23.10824767062297  52.24890842555674  -23.38912127409873  16.51214366836143  0.000000
1.035  0.000000  0.000000  0.000000  -32.185128005994656  1.2296487717072948  24.25899098793589  58.99155759578423  9.000322938186233  -10.285552672430805  23.195821461844197  52.52107217880179  -23.632072862487757  16.37160435144806  0.000000
1.05  0.000000  0.000000  0.000000  -32.20131864240695  1.2714764658615512  24.389029500024023  59.08783487074439  9.152351190146414  -10.140504074946149  23.277059178009644  52.78224995374762  -23.862894514272934  16.240926932088307  0.000000
1.065  0.000000  0.000000  0.000000  -32.21235867724093  1.314343543949948  24.512664497922337  59.18435029200545  9.28881602829949  -9.993295450286041  23.352591018380267  53.03176988440132  -24.0811342151165  16.12089852804275  0.000000
1.08  0.000000  0.000000  0.000000  -32.21922017456949  1.3584904859567122  24.630697162980653  59.27969647799325  9.411607604355005  -9.845137876424221  23.422696592124485  53.269187145018556  -24.286433729339816  16.012155651036128  0.000000
1.095  0.000000  0.000000  0.000000  -32.2230675181212  1.4043414794000482  24.743937923867534  59.37252999584295  9.522278565070701  -9.696858393461298  23.486889029963322  53.494145192673585  -24.478233881561113  15.915078118993293  0.000000
1.1099999999999999  0.000000  0.000000  0.000000  -32.224663559187334  1.4520141658441483  24.852887343026882  59.461606141937246  9.622114888864246  -9.549621015233248  23.543788441671175  53.70668302344948  -24.655484243807994  15.829871761084485  0.000000
1.125  0.000000  0.000000  0.000000  -32.224646432826226  1.5015131469640888  24.95821361816667  59.54583664578707  9.711994058516995  -9.404465272697843  23.591046747798828  53.906829284491245  -24.816669233439747  15.756639458436792  0.000000
1.14  0.000000  0.000000  0.000000  -32.223332164947784  1.5531833474252081  25.06044757653379  59.62406640731177  9.792234721213763  -9.26247874282882  23.62606786767627  54.094803754633894  -24.960445899210857  15.69529552202382  0.000000
1.155  0.000000  0.000000  0.000000  -32.2214070063516  1.6071802055060371  25.159908414078945  59.695390367373435  9.863276907601595  -9.124313702890788  23.646191224327058  54.27089224365817  -25.085516938777996  15.645881214722996  0.000000
1.17  0.000000  0.000000  0.000000  -32.21964025798734  1.6638495777409075  25.256323120022625  59.75887431012836  9.925607284891138  -8.990297120870398  23.64917383144816  54.43551705504337  -25.190964754445645  15.608241798379249  0.000000
1.185  0.000000  0.000000  0.000000  -32.21843476379745  1.7238351251910367  25.349702854941253  59.81358349780569  9.979694219013114  -8.860614478296869  23.632529497300144  54.588460929426645  -25.275780108061877  15.582017817145912  0.000000
1.2  0.000000  0.000000  0.000000  -32.21808581063883  1.7873493867848655  25.43988414450287  59.85879668611943  10.026135348341642  -8.735769323793185  23.594451150769924  54.72954949076328  -25.33943817888075  15.566614142561574  0.000000
1.2149999999999999  0.000000  0.000000  0.000000  -32.219335384605316  1.8544848810853787  25.52656206636153  59.89398283251289  10.065781348026395  -8.615884248519054  23.53401102260323  54.8582871115359  -25.38203561096155  15.561752052980228  0.000000
1.23  0.000000  0.000000  0.000000  -32.2230203170921  1.9258118725644255  25.608781883486774  59.918468654739904  10.099518952063685  -8.50081975349507  23.451956190794682  54.974128918734806  -25.404692497472137  15.566583024679893  0.000000
1.2449999999999999  0.000000  0.000000  0.000000  -32.229914160395715  2.001652235134439  25.685424240560934  59.93154994417602  10.128720601792208  -8.390240605103616  23.350119101729174  55.07591160335707  -25.408941736337923  15.580797928991252  0.000000
1.26  0.000000  0.000000  0.000000  -32.240628013073966  2.0822818476823204  25.755003908353036  59.932459232399964  10.154886120420162  -8.28412132832739  23.232280951454364  55.16208866546716  -25.397432001591945  15.604275875379294  0.000000
1.275  0.000000  0.000000  0.000000  -32.25647906873768  2.168398987329133  25.815703096571376  59.9207736755458  10.179490213191846  -8.181520264032091  23.104599242948115  55.23026811745547  -25.37394140782475  15.635779817742549  0.000000
